{"title":"Julien Duvivier - Pepe le Moko (1937)","uid":6126786,"size":1270881143,"categoryP":"video","categoryS":"movies","magnet":"?xt=urn:btih:7fdffb90e8f6a58d191b9d8d27bb6402ca8a0440&amp;dn=Julien+Duvivier+-+Pepe+le+Moko+%281937%29&amp;tr=udp%3A%2F%2Ftracker.openbittorrent.com%3A80&amp;tr=udp%3A%2F%2Fopen.demonii.com%3A1337&amp;tr=udp%3A%2F%2Ftracker.coppersurfer.tk%3A6969&amp;tr=udp%3A%2F%2Fexodus.desync.com%3A6969","seeders":5,"leechers":1,"uploader":"mfccorrea","files":4,"time":1295968025,"description":"PÃƒÂ©pÃƒÂ© le Moko is a gangster from Paris that hides in Algier's Casbah. In the Casbah, he is safe and is able to elude the police's attempts to capture him. But he misses his freedom, after two years in the Casbah. He meets a gorgeous Parisian tourist, Gaby, and they fall in love. Native inspector Slimane tries to use her to attract PÃƒÂ©pÃƒÂ© out of the Casbah in order to catch him.\n\n   General\n      Complete name : Pepe le Moko.avi\n      Format : AVI\n      Format/Info : Audio Video Interleave\n      File size : 1.18 GiB\n      Duration : 1h 33mn\n      Overall bit rate : 1 804 Kbps\n      Writing application : VirtualDubMod 1.5.10.2 (build 2542/release)\n      Writing library : VirtualDub build 32661/release\n   Video #0\n      ID : 0\n      Format : MPEG-4 Visual\n      Format profile : AdvancedSimple@L5\n      Format settings, BVOP : Yes\n      Format settings, QPel : No\n      Format settings, GMC : No warppoints\n      Format settings, Matrix : Custom\n      Codec ID : XVID\n      Codec ID/Hint : XviD\n      Duration : 1h 33mn\n      Bit rate : 1 603 Kbps\n      Width : 704 pixels\n      Height : 528 pixels\n      Display aspect ratio : 4:3\n      Frame rate : 23.976 fps\n      Resolution : 24 bits\n      Colorimetry : 4:2:0\n      Scan type : Progressive\n      Bits/(Pixel*Frame) : 0.180\n      Stream size : 1.05 GiB (89%)\n      Writing library : XviD 1.2.1 (UTC 2008-12-04)\n   Audio #1\n      ID : 1\n      Format : AC-3\n      Format/Info : Audio Coding 3\n      Codec ID : 2000\n      Duration : 1h 33mn\n      Bit rate mode : Constant\n      Bit rate : 192 Kbps\n      Channel(s) : 1 channel\n      Channel positions : C\n      Sampling rate : 48.0 KHz\n      Stream size : 129 MiB (11%)\n      Alignment : Split accross interleaves\n      Interleave, duration : 42 ms (1.00 video frame)\n      Interleave, preload duration : 500 ms\n &lt;a href=&quot;\nhttp://www.imdb.com/title/tt0029453/&quot; rel=&quot;nofollow&quot; target=&quot;_NEW&quot;&gt;\nhttp://www.imdb.com/title/tt0029453/&lt;/a&gt;\n\nFrench audio; English, Spanish and Portuguese subtitles\n\nCriterion rip, posted originally at KG by zoneyoutwonk, whom we thank\n\nJulien Duvivier - Pepe le Moko (1937)\n","torrent":{"xt":"urn:btih:7fdffb90e8f6a58d191b9d8d27bb6402ca8a0440","amp;dn":"Julien+Duvivier+-+Pepe+le+Moko+%281937%29","amp;tr":["udp%3A%2F%2Ftracker.openbittorrent.com%3A80","udp%3A%2F%2Fopen.demonii.com%3A1337","udp%3A%2F%2Ftracker.coppersurfer.tk%3A6969","udp%3A%2F%2Fexodus.desync.com%3A6969"],"infoHash":"7fdffb90e8f6a58d191b9d8d27bb6402ca8a0440","infoHashBuffer":{"type":"Buffer","data":[127,223,251,144,232,246,165,141,25,27,157,141,39,187,100,2,202,138,4,64]},"announce":[],"urlList":[]}}